<?xml version="1.0" encoding="UTF-8"?>
<svg id="Layer_1" xmlns="http://www.w3.org/2000/svg" version="1.1" viewBox="0 0 16 16">
  <!-- Generator: Adobe Illustrator 29.7.0, SVG Export Plug-In . SVG Version: 2.1.1 Build 138)  -->
  <path d="M10,5.5v5c0,.28.22.5.5.5s.5-.22.5-.5v-5c0-.28-.22-.5-.5-.5s-.5.22-.5.5Z" style="fill: #5d5d5d;"/>
  <path d="M13.5,3h-2.69l-.59-1.17c-.26-.51-.77-.83-1.34-.83h-2.76c-.57,0-1.09.32-1.34.83l-.59,1.17H1.5c-.28,0-.5.22-.5.5s.22.5.5.5h.5v9.5c0,1.38,1.12,2.5,2.5,2.5h6c1.38,0,2.5-1.12,2.5-2.5V4h.5c.28,0,.5-.22.5-.5s-.22-.5-.5-.5ZM5.67,2.28c.08-.17.26-.28.45-.28h2.76c.19,0,.36.11.45.28l.36.72h-4.38l.36-.72ZM12,13.5c0,.83-.67,1.5-1.5,1.5h-6c-.83,0-1.5-.67-1.5-1.5V4h9v9.5Z" style="fill: #5d5d5d;"/>
</svg>