<?xml version="1.0" encoding="UTF-8"?>
<svg id="Layer_1" xmlns="http://www.w3.org/2000/svg" version="1.1" viewBox="0 0 16 16">
  <!-- Generator: Adobe Illustrator 29.7.0, SVG Export Plug-In . SVG Version: 2.1.1 Build 138)  -->
  <path d="M11.13,5.57l1.72-1.72c.2-.2.2-.51,0-.71s-.51-.2-.71,0l-1.47,1.47c-.85-.4-1.74-.62-2.67-.62-2.43,0-4.66,1.41-5.94,3.76-.08.15-.08.33,0,.48.6,1.09,1.42,1.97,2.37,2.62l-1.28,1.28c-.2.2-.2.51,0,.71.1.1.23.15.35.15s.26-.05.35-.15l1.72-1.72,5.56-5.56s0,0,0,0ZM3.08,8c1.12-1.88,2.94-3,4.92-3,.66,0,1.31.12,1.92.37l-4.78,4.78c-.82-.52-1.52-1.25-2.06-2.15Z" style="fill: #5d5d5d;"/>
  <path d="M13.94,7.76c-.32-.57-.69-1.09-1.11-1.55-.18-.21-.5-.22-.71-.04-.2.19-.22.5-.03.71.31.34.59.72.83,1.13-1.21,2.03-3.24,3.12-5.37,2.98-.27-.01-.51.19-.53.47-.02.28.19.51.47.53.17.01.34.02.51.02,2.43,0,4.66-1.41,5.94-3.76.08-.15.08-.33,0-.48Z" style="fill: #5d5d5d;"/>
</svg>