<?xml version="1.0" encoding="UTF-8"?>
<svg id="Layer_1" xmlns="http://www.w3.org/2000/svg" version="1.1" viewBox="0 0 16 16">
  <!-- Generator: Adobe Illustrator 29.7.0, SVG Export Plug-In . SVG Version: 2.1.1 Build 138)  -->
  <path d="M8,4c-2.44,0-4.66,1.41-5.94,3.76-.08.15-.08.33,0,.48,1.28,2.35,3.5,3.76,5.94,3.76s4.66-1.41,5.94-3.76c.08-.15.08-.33,0-.48-1.28-2.35-3.5-3.76-5.94-3.76ZM8,11c-1.98,0-3.81-1.12-4.92-3,1.12-1.88,2.94-3,4.92-3s3.81,1.12,4.92,3c-1.12,1.88-2.94,3-4.92,3Z" style="fill: #5d5d5d;"/>
  <path d="M8,6c-1.1,0-2,.9-2,2s.9,2,2,2,2-.9,2-2-.9-2-2-2ZM8,9c-.55,0-1-.45-1-1s.45-1,1-1,1,.45,1,1-.45,1-1,1Z" style="fill: #5d5d5d;"/>
</svg>