<?xml version="1.0" encoding="UTF-8"?>
<svg id="Layer_1" xmlns="http://www.w3.org/2000/svg" version="1.1" viewBox="0 0 16 16">
  <!-- Generator: Adobe Illustrator 29.7.0, SVG Export Plug-In . SVG Version: 2.1.1 Build 138)  -->
  <path d="M12.5,3.5v7H4c-.69,0-1.32.28-1.77.73-.45.45-.73,1.08-.73,1.77V3.5c0-1.1.9-2,2-2h7c1.1,0,2,.9,2,2Z" style="fill: #8cf;"/>
  <path d="M1.5,13.5c-.28,0-.5-.22-.5-.5V3.5c0-1.38,1.12-2.5,2.5-2.5h7c1.38,0,2.5,1.12,2.5,2.5v7c0,.28-.22.5-.5.5H4c-.54,0-1.04.21-1.42.58-.37.37-.58.89-.58,1.42,0,.28-.22.5-.5.5ZM3.5,2c-.83,0-1.5.67-1.5,1.5v7.26c.55-.49,1.25-.76,2-.76h8V3.5c0-.83-.67-1.5-1.5-1.5H3.5Z" style="fill: #3184fb;"/>
  <path d="M12.5,16H4c-1.65,0-3-1.35-3-3,0-.8.31-1.56.88-2.12.56-.57,1.32-.88,2.12-.88h8.5c.28,0,.5.22.5.5s-.22.5-.5.5H4c-.54,0-1.04.21-1.42.58s-.58.88-.58,1.42c0,1.1.9,2,2,2h8.5c.28,0,.5.22.5.5s-.22.5-.5.5Z" style="fill: #3184fb;"/>
  <path d="M11.5,13.5h-7.5c-.28,0-.5-.22-.5-.5s.22-.5.5-.5h7.5c.28,0,.5.22.5.5s-.22.5-.5.5Z" style="fill: #3184fb;"/>
</svg>