<?xml version="1.0" encoding="UTF-8"?>
<svg id="Layer_1" xmlns="http://www.w3.org/2000/svg" version="1.1" viewBox="0 0 16 16">
  <!-- Generator: Adobe Illustrator 29.7.0, SVG Export Plug-In . SVG Version: 2.1.1 Build 138)  -->
  <path d="M10.17,14.99c-.38,0-.72-.07-.96-.26-.24-.18-.37-.44-.39-.73-.06-.82.75-1.71,2.08-3.11.89-.94,2.39-2.51,1.98-2.92-.47-.47-2.49.74-3.82,1.54-2.03,1.23-3.96,2.39-4.96,1.38-.25-.25-.37-.56-.35-.91.06-1.14,1.71-2.45,3.61-3.97,1.55-1.24,3.47-2.77,3.52-3.62,0-.11-.03-.19-.12-.28-.73-.73-5.73,1.34-9.94,3.74-.24.14-.54.05-.68-.19-.14-.24-.05-.54.19-.68C2.52,3.74,9.82-.22,11.46,1.42c.29.29.43.65.41,1.04-.07,1.29-1.93,2.77-3.9,4.34-1.43,1.14-3.2,2.56-3.24,3.25,0,.05,0,.09.06.15.45.45,2.43-.74,3.74-1.53,2.06-1.25,4.01-2.42,5.04-1.39,1.1,1.1-.46,2.73-1.96,4.31-.66.7-1.89,1.99-1.8,2.35.29.23,1.78-.13,3.12-.75.25-.11.55,0,.66.24.12.25,0,.55-.24.66-.55.25-2.05.9-3.18.9Z" style="fill: #fff;"/>
</svg>