<?xml version="1.0" encoding="UTF-8"?>
<svg id="Layer_1" xmlns="http://www.w3.org/2000/svg" version="1.1" viewBox="0 0 16 16">
  <!-- Generator: Adobe Illustrator 29.7.0, SVG Export Plug-In . SVG Version: 2.1.1 Build 138)  -->
  <path d="M5.07,11.28c-.38,0-.71-.11-.98-.38-.25-.25-.37-.56-.35-.91.06-1.13,1.71-2.45,3.61-3.97,1.55-1.24,3.48-2.78,3.53-3.63,0-.11-.03-.19-.12-.28-.73-.73-5.73,1.35-9.94,3.74-.24.14-.54.05-.68-.19-.14-.24-.05-.55.19-.68C2.52,3.74,9.82-.22,11.46,1.42c.29.29.43.65.41,1.05-.07,1.29-1.93,2.78-3.9,4.35-1.42,1.14-3.2,2.55-3.24,3.24,0,.05,0,.09.06.14.45.45,2.43-.74,3.75-1.54,2.06-1.25,4.01-2.42,5.03-1.39.21.21.51.66.26,1.4-.09.26-.37.4-.63.31-.26-.09-.4-.37-.31-.64.09-.26.02-.33-.02-.36-.47-.47-2.48.74-3.81,1.54-1.5.9-2.93,1.77-3.99,1.77Z" style="fill: #8cf;"/>
  <path d="M13.71,13l2.15-2.15c.2-.2.2-.51,0-.71s-.51-.2-.71,0l-2.15,2.15-2.15-2.15c-.2-.2-.51-.2-.71,0s-.2.51,0,.71l2.15,2.15-2.15,2.15c-.2.2-.2.51,0,.71.1.1.23.15.35.15s.26-.05.35-.15l2.15-2.15,2.15,2.15c.1.1.23.15.35.15s.26-.05.35-.15c.2-.2.2-.51,0-.71l-2.15-2.15Z" style="fill: #fff;"/>
</svg>