<?xml version="1.0" encoding="UTF-8"?>
<svg id="Layer_1" xmlns="http://www.w3.org/2000/svg" version="1.1" viewBox="0 0 16 16">
  <!-- Generator: Adobe Illustrator 29.7.0, SVG Export Plug-In . SVG Version: 2.1.1 Build 138)  -->
  <path d="M13.09,5.69c.05-.12.05-.26,0-.38-.03-.06-.06-.12-.11-.16l-3-3c-.2-.2-.51-.2-.71,0s-.2.51,0,.71l2.15,2.15h-5.41c-1.48,0-2.8.78-3.51,2.07-.71,1.3-.67,2.82.13,4.07l2.31,3.62c.1.15.26.23.42.23.09,0,.19-.03.27-.08.23-.15.3-.46.15-.69l-2.31-3.62c-.6-.94-.63-2.08-.1-3.06.54-.97,1.52-1.56,2.64-1.56h5.41l-2.15,2.15c-.2.2-.2.51,0,.71.1.1.23.15.35.15s.26-.05.35-.15l3-3s.08-.1.11-.16Z" style="fill: #3184fb;"/>
</svg>