<?xml version="1.0" encoding="UTF-8"?>
<svg id="Layer_1" xmlns="http://www.w3.org/2000/svg" version="1.1" viewBox="0 0 20 20">
  <!-- Generator: Adobe Illustrator 29.7.0, SVG Export Plug-In . SVG Version: 2.1.1 Build 138)  -->
  <path d="M.59,16.82c1.48,2.15,4.74,2.88,6.83,1.41,1.8-1.27,2.2-3.24,1.01-4.96-1.07-1.56-3.01-1.99-4.28-1.07-1.47,1.06-.88,2.5-1.78,3.15-.75.55-1.27.21-1.71.5-.28.18-.39.52-.07.97Z" style="fill: #3184fb;"/>
  <path d="M8.77,11.95c.65.65,1.13,1.52,1.25,2.23.72-.12,1.29-.46,1.89-1.06.1-.09.19-.19.27-.3-.39-2.16-2.17-3.93-4.26-4.32-.11.09-.2.19-.3.29-.6.61-.93,1.21-1.04,1.91.69.12,1.56.6,2.19,1.25Z" style="fill: #3184fb;"/>
  <path d="M17.11,1.32c-.45.33-5.37,3.74-8.38,6.43,2,.64,3.56,2.21,4.2,4.26,2.68-3.05,6.04-8.02,6.37-8.48,1.04-1.48-.78-3.27-2.18-2.21Z" style="fill: #3184fb;"/>
</svg>