<?xml version="1.0" encoding="UTF-8"?>
<svg id="Layer_1" xmlns="http://www.w3.org/2000/svg" version="1.1" viewBox="0 0 16 16">
  <!-- Generator: Adobe Illustrator 29.7.0, SVG Export Plug-In . SVG Version: 2.1.1 Build 138)  -->
  <path d="M12.63,7.07c-.71-1.3-2.03-2.07-3.51-2.07H3.71l2.15-2.15c.2-.2.2-.51,0-.71s-.51-.2-.71,0l-3,3s-.08.1-.11.16c-.05.12-.05.26,0,.38.03.06.06.12.11.16l3,3c.1.1.23.15.35.15s.26-.05.35-.15c.2-.2.2-.51,0-.71l-2.15-2.15h5.41c1.11,0,2.1.58,2.64,1.56.54.97.5,2.12-.1,3.05l-2.31,3.62c-.15.23-.08.54.15.69.08.05.18.08.27.08.17,0,.33-.08.42-.23l2.31-3.62c.79-1.25.84-2.77.13-4.07Z" style="fill: #3184fb;"/>
</svg>